<svg width="109" height="21" viewBox="0 0 109 21" fill="none" xmlns="http://www.w3.org/2000/svg">
<path d="M0.84 3.92C0.84 2.84 0.72 2.5 0.2 2.04V2H5.46C9.5 2 11.64 3.34 11.64 5.9C11.64 8 10.18 9.48 7.86 9.8V9.82C10.92 10 12.82 11.54 12.82 14.4C12.82 17.88 10 20 5.56 20H0.2V19.96C0.72 19.5 0.84 19.16 0.84 18.08V3.92ZM1.84 2.3V9.88C8.08 9.84 10.7 8.72 10.7 6.08C10.7 3.66 8.74 2.3 5.26 2.3H1.84ZM1.84 10.18V19.7L5.26 19.66C9.14 19.62 11.72 17.6 11.72 14.42C11.72 11.46 9.5 10.18 5.52 10.18H1.84ZM14.6195 13.28C14.6195 9.2 17.2595 6.3 21.0395 6.3C24.0995 6.3 25.6595 8.18 25.6595 11.88V12.14L15.6195 13.08C15.6395 16.86 17.9595 19.6 21.1595 19.6C22.9395 19.6 24.6595 18.74 25.6595 17.32L25.7595 17.38C24.9995 19.06 23.0595 20.16 20.8795 20.16C17.1995 20.16 14.6195 17.32 14.6195 13.28ZM15.6195 12.76L24.8595 11.88C24.8595 8.32 23.6395 6.62 21.1195 6.62C18.0795 6.62 15.7395 9.1 15.6195 12.76Z" fill="#FFC300"/>
<path d="M28.2033 8.3C28.2033 7.6 27.9833 7.16 27.5633 7.06V7.02L29.1033 6.3H29.1433V8.3C30.8433 7.08 32.9833 6.3 34.7633 6.3C36.9433 6.3 38.0033 7.5 38.0033 10.02V18.08C38.0033 19.16 38.1233 19.5 38.6433 19.96V20H36.4233V19.96C36.9433 19.5 37.0633 19.16 37.0633 18.08V10.26C37.0633 7.86 36.2033 6.76 34.2833 6.76C32.7433 6.76 30.8433 7.46 29.1433 8.7V18.08C29.1433 19.16 29.2633 19.5 29.7833 19.96V20H27.5633V19.96C28.0833 19.5 28.2033 19.16 28.2033 18.08V8.3ZM40.4398 13.06C40.4398 8.84 42.4398 6.3 45.7798 6.3C49.1198 6.3 51.1198 8.84 51.1198 13.06C51.1198 17.38 49.0198 20.16 45.7798 20.16C42.5398 20.16 40.4398 17.38 40.4398 13.06ZM41.4398 13.1C41.4398 17.26 43.1198 19.86 45.7798 19.86C48.4398 19.86 50.1198 17.26 50.1198 13.1C50.1198 9.02 48.4998 6.6 45.7798 6.6C43.0598 6.6 41.4398 9.02 41.4398 13.1ZM53.5548 8.3C53.5548 7.6 53.3348 7.16 52.9148 7.06V7.02L54.4548 6.3H54.4948V8.3C56.1948 7.08 58.3348 6.3 60.1148 6.3C61.7748 6.3 62.7948 7 63.1748 8.44C64.8948 7.14 67.1348 6.3 68.9748 6.3C71.1548 6.3 72.2148 7.5 72.2148 10.02V18.08C72.2148 19.16 72.3348 19.5 72.8548 19.96V20H70.6348V19.96C71.1548 19.5 71.2748 19.16 71.2748 18.08V10.26C71.2748 7.86 70.4148 6.76 68.4948 6.76C66.9148 6.76 64.9948 7.5 63.2548 8.78C63.3148 9.14 63.3548 9.56 63.3548 10.02V18.08C63.3548 19.16 63.4748 19.5 63.9948 19.96V20H61.7748V19.96C62.2948 19.5 62.4148 19.16 62.4148 18.08V10.26C62.4148 7.86 61.5548 6.76 59.6348 6.76C58.0948 6.76 56.1948 7.46 54.4948 8.7V18.08C54.4948 19.16 54.6148 19.5 55.1348 19.96V20H52.9148V19.96C53.4348 19.5 53.5548 19.16 53.5548 18.08V8.3ZM75.6986 4.36C75.6986 3.94 75.9986 3.76 76.3186 3.76C76.5986 3.76 76.8986 3.94 76.8986 4.36C76.8986 4.76 76.5986 4.96 76.3186 4.96C75.9986 4.96 75.6986 4.76 75.6986 4.36ZM75.8986 8.3C75.8986 7.6 75.6786 7.16 75.2586 7.06V7.02L76.7986 6.3H76.8386V18.08C76.8386 19.16 76.9586 19.5 77.4786 19.96V20H75.2586V19.96C75.7786 19.5 75.8986 19.16 75.8986 18.08V8.3ZM80.5275 8.3C80.5275 7.6 80.3075 7.16 79.8875 7.06V7.02L81.4275 6.3H81.4675V8.3C83.1675 7.08 85.3075 6.3 87.0875 6.3C89.2675 6.3 90.3275 7.5 90.3275 10.02V18.08C90.3275 19.16 90.4475 19.5 90.9675 19.96V20H88.7475V19.96C89.2675 19.5 89.3875 19.16 89.3875 18.08V10.26C89.3875 7.86 88.5275 6.76 86.6075 6.76C85.0675 6.76 83.1675 7.46 81.4675 8.7V18.08C81.4675 19.16 81.5875 19.5 82.1075 19.96V20H79.8875V19.96C80.4075 19.5 80.5275 19.16 80.5275 18.08V8.3ZM93.3695 16.06C93.3695 13.06 95.6895 11.36 98.8695 11.36C100.31 11.36 101.55 11.72 102.33 12.3V11.1C102.33 8.06 101.25 6.62 98.9695 6.62C96.7495 6.62 95.2895 7.98 95.0495 10.02H94.9495L94.3695 8.22C94.9895 7.12 96.9295 6.3 98.9695 6.3C101.87 6.3 103.27 7.94 103.27 11.34V18.34C103.27 18.68 103.21 19.52 103.79 19.52C104.03 19.52 104.25 19.4 104.45 19.1L104.59 19.2C104.19 19.92 103.85 20.16 103.39 20.16C102.69 20.16 102.35 19.64 102.33 18.66C101.19 19.74 99.5095 20.16 97.9895 20.16C94.9695 20.16 93.3695 18.56 93.3695 16.06ZM94.3695 16.1C94.3695 18.3 95.7295 19.68 98.2295 19.68C99.6295 19.68 101.31 19.26 102.33 18.16V12.7C101.73 12.14 100.61 11.78 99.2695 11.78C96.3095 11.78 94.3695 13.48 94.3695 16.1ZM106.953 2.84C106.953 2.14 106.733 1.7 106.313 1.6V1.56L107.853 0.839999H107.893V18.08C107.893 19.16 108.013 19.5 108.533 19.96V20H106.313V19.96C106.833 19.5 106.953 19.16 106.953 18.08V2.84Z" fill="#1B4332"/>
</svg>
