<svg width="20" height="18" viewBox="0 0 20 18" fill="none" xmlns="http://www.w3.org/2000/svg">
<path d="M17.4998 9.572L9.99981 17L2.49981 9.572C2.00512 9.09061 1.61546 8.51201 1.35536 7.87263C1.09527 7.23326 0.970374 6.54695 0.98855 5.85693C1.00673 5.16692 1.16758 4.48814 1.46097 3.86334C1.75436 3.23854 2.17395 2.68125 2.6933 2.22658C3.21265 1.7719 3.82052 1.42969 4.47862 1.22148C5.13673 1.01327 5.83082 0.943583 6.51718 1.0168C7.20354 1.09002 7.86731 1.30456 8.46669 1.64691C9.06606 1.98926 9.58806 2.452 9.99981 3.006C10.4133 2.45602 10.9359 1.99732 11.5349 1.6586C12.1339 1.31989 12.7963 1.10845 13.4807 1.03752C14.1652 0.96659 14.8569 1.0377 15.5126 1.24639C16.1683 1.45509 16.7738 1.79687 17.2914 2.25036C17.8089 2.70385 18.2272 3.25928 18.5202 3.88189C18.8132 4.5045 18.9746 5.18088 18.9941 5.86871C19.0137 6.55653 18.8911 7.24099 18.6339 7.87925C18.3768 8.51751 17.9907 9.09582 17.4998 9.578" stroke="#1B4332" stroke-width="1.33333" stroke-linecap="round" stroke-linejoin="round"/>
</svg>
