<svg width="14" height="15" viewBox="0 0 14 15" fill="none" xmlns="http://www.w3.org/2000/svg">
<path d="M6.68853 12.1675L1.95492 7.21865C1.6427 6.89793 1.39676 6.51244 1.23261 6.08646C1.06845 5.66047 0.989623 5.20323 1.00109 4.74351C1.01257 4.28378 1.11409 3.83155 1.29926 3.41528C1.48444 2.99901 1.74925 2.62773 2.07704 2.3248C2.40483 2.02188 2.78848 1.79388 3.20384 1.65516C3.61921 1.51644 4.05728 1.47001 4.49047 1.51879C4.92367 1.56757 5.34261 1.71051 5.7209 1.9386C6.09919 2.16669 6.42865 2.47499 6.68853 2.84409C7.19513 2.14082 7.94565 1.67881 8.77496 1.55967C9.60427 1.44054 10.4444 1.67404 11.1107 2.20882C11.7769 2.7436 12.2146 3.53585 12.3274 4.41128C12.4403 5.2867 12.2191 6.1736 11.7125 6.87686M9.21312 11.5013H13M11.1066 9.50253V13.5" stroke="#83918B" stroke-width="1.33333" stroke-linecap="round" stroke-linejoin="round"/>
</svg>
