<svg width="28" height="29" viewBox="0 0 28 29" fill="none" xmlns="http://www.w3.org/2000/svg">
<path d="M26.2325 11.3769C25.7612 10.8844 25.2738 10.3769 25.09 9.93066C24.92 9.52191 24.91 8.84441 24.9 8.18816C24.8813 6.96816 24.8612 5.58566 23.9 4.62441C22.9387 3.66316 21.5562 3.64316 20.3363 3.62441C19.68 3.61441 19.0025 3.60441 18.5938 3.43441C18.1488 3.25066 17.64 2.76316 17.1475 2.29191C16.285 1.46316 15.305 0.524414 14 0.524414C12.695 0.524414 11.7162 1.46316 10.8525 2.29191C10.36 2.76316 9.8525 3.25066 9.40625 3.43441C9 3.60441 8.32 3.61441 7.66375 3.62441C6.44375 3.64316 5.06125 3.66316 4.1 4.62441C3.13875 5.58566 3.125 6.96816 3.1 8.18816C3.09 8.84441 3.08 9.52191 2.91 9.93066C2.72625 10.3757 2.23875 10.8844 1.7675 11.3769C0.93875 12.2394 0 13.2194 0 14.5244C0 15.8294 0.93875 16.8082 1.7675 17.6719C2.23875 18.1644 2.72625 18.6719 2.91 19.1182C3.08 19.5269 3.09 20.2044 3.1 20.8607C3.11875 22.0807 3.13875 23.4632 4.1 24.4244C5.06125 25.3857 6.44375 25.4057 7.66375 25.4244C8.32 25.4344 8.9975 25.4444 9.40625 25.6144C9.85125 25.7982 10.36 26.2857 10.8525 26.7569C11.715 27.5857 12.695 28.5244 14 28.5244C15.305 28.5244 16.2837 27.5857 17.1475 26.7569C17.64 26.2857 18.1475 25.7982 18.5938 25.6144C19.0025 25.4444 19.68 25.4344 20.3363 25.4244C21.5562 25.4057 22.9387 25.3857 23.9 24.4244C24.8612 23.4632 24.8813 22.0807 24.9 20.8607C24.91 20.2044 24.92 19.5269 25.09 19.1182C25.2738 18.6732 25.7612 18.1644 26.2325 17.6719C27.0613 16.8094 28 15.8294 28 14.5244C28 13.2194 27.0613 12.2407 26.2325 11.3769ZM19.7075 12.2319L12.7075 19.2319C12.6146 19.3249 12.5043 19.3987 12.3829 19.449C12.2615 19.4993 12.1314 19.5252 12 19.5252C11.8686 19.5252 11.7385 19.4993 11.6171 19.449C11.4957 19.3987 11.3854 19.3249 11.2925 19.2319L8.2925 16.2319C8.19959 16.139 8.12589 16.0287 8.07561 15.9073C8.02532 15.7859 7.99944 15.6558 7.99944 15.5244C7.99944 15.393 8.02532 15.2629 8.07561 15.1415C8.12589 15.0201 8.19959 14.9098 8.2925 14.8169C8.48014 14.6293 8.73464 14.5239 9 14.5239C9.1314 14.5239 9.2615 14.5497 9.3829 14.6C9.50429 14.6503 9.61459 14.724 9.7075 14.8169L12 17.1107L18.2925 10.8169C18.3854 10.724 18.4957 10.6503 18.6171 10.6C18.7385 10.5497 18.8686 10.5239 19 10.5239C19.1314 10.5239 19.2615 10.5497 19.3829 10.6C19.5043 10.6503 19.6146 10.724 19.7075 10.8169C19.8004 10.9098 19.8741 11.0201 19.9244 11.1415C19.9747 11.2629 20.0006 11.393 20.0006 11.5244C20.0006 11.6558 19.9747 11.7859 19.9244 11.9073C19.8741 12.0287 19.8004 12.139 19.7075 12.2319Z" fill="#006039"/>
</svg>
