<svg width="33" height="33" viewBox="0 0 33 33" fill="none" xmlns="http://www.w3.org/2000/svg">
<path d="M26.6225 12.1166L26.9505 11.3619C27.5272 10.0269 28.5833 8.95645 29.9105 8.36189L30.9225 7.90989C31.0453 7.85341 31.1493 7.76291 31.2222 7.64913C31.2951 7.53534 31.3339 7.40303 31.3339 7.26789C31.3339 7.13274 31.2951 7.00044 31.2222 6.88665C31.1493 6.77286 31.0453 6.68236 30.9225 6.62589L29.9665 6.20055C28.606 5.58906 27.5318 4.47906 26.9652 3.09922L26.6278 2.28455C26.5783 2.15836 26.4919 2.05002 26.3799 1.97365C26.2678 1.89729 26.1354 1.85645 25.9998 1.85645C25.8643 1.85645 25.7318 1.89729 25.6198 1.97365C25.5078 2.05002 25.4214 2.15836 25.3718 2.28455L25.0345 3.09789C24.4685 4.47799 23.3948 5.58846 22.0345 6.20055L21.0772 6.62722C20.9548 6.68386 20.8511 6.77434 20.7785 6.88799C20.7059 7.00163 20.6673 7.13368 20.6673 7.26855C20.6673 7.40342 20.7059 7.53548 20.7785 7.64912C20.8511 7.76276 20.9548 7.85325 21.0772 7.90989L22.0905 8.36055C23.4174 8.95571 24.4731 10.0266 25.0492 11.3619L25.3772 12.1166C25.6172 12.6686 26.3812 12.6686 26.6225 12.1166ZM18.5158 8.97655C18.8812 9.55433 19.3807 9.98144 20.0145 10.2579L20.7678 10.5872C21.5278 10.9188 22.0714 11.4512 22.3985 12.1846L22.8492 13.1979C23.8185 15.3806 26.7038 15.7232 28.2785 14.2299L28.3998 14.3912C28.5851 14.6384 28.6789 14.9422 28.665 15.2508C28.6511 15.5594 28.5306 15.8537 28.3238 16.0832L16.3238 29.4166C16.1988 29.5554 16.046 29.6663 15.8754 29.7423C15.7047 29.8182 15.52 29.8575 15.3332 29.8575C15.1464 29.8575 14.9617 29.8182 14.791 29.7423C14.6203 29.6663 14.4675 29.5554 14.3425 29.4166L2.34251 16.0832C2.13579 15.8537 2.01521 15.5594 2.00134 15.2508C1.98748 14.9422 2.08121 14.6384 2.26651 14.3912L6.26651 9.05789C6.3907 8.89229 6.55175 8.75789 6.73689 8.66532C6.92203 8.57275 7.12618 8.52455 7.33318 8.52455H18.2745C18.343 8.67922 18.423 8.82989 18.5145 8.97655" fill="#006039"/>
</svg>
