<svg width="33" height="33" viewBox="0 0 33 33" fill="none" xmlns="http://www.w3.org/2000/svg">
<path d="M29.7525 1.77441L23.3463 3.63754L25.94 1.88191C24.3025 2.25191 22.2337 2.97566 19.6337 4.14379L15.39 8.56816L16.8962 5.47754C15.44 6.28754 13.8962 7.34941 12.4087 8.59316L11.4212 12.6119L11.2087 9.63691C9.74 10.9869 8.35875 12.4869 7.215 14.0682C6.01313 15.7244 5.07375 17.4744 4.60312 19.2182L2.84562 18.0432C3.00312 19.5244 3.49 20.8119 4.28875 21.9932L2.1875 21.3494C2.665 22.8182 3.44563 23.7682 4.76563 24.5369C4.02625 26.6182 3.67937 28.7932 3.30687 30.9619L4.45688 31.1557C5.79063 17.8619 15.2025 9.38691 23.7087 5.63191L24.14 6.71816C16.5337 10.1244 10.6213 15.8744 7.5275 24.1619C8.65875 24.1682 9.765 24.0307 10.79 23.7682L11.0962 19.9619L11.915 23.4307C12.5962 23.1807 13.2213 22.8807 13.7775 22.5307L12.4837 19.8119L14.5337 21.9869C15.0337 21.5869 15.4462 21.1369 15.7587 20.6432C17.6587 17.6744 19.6462 14.7244 23.5588 12.2557L20.7025 11.2432L25.0837 11.3744C25.7962 11.0119 26.5462 10.5682 27.115 10.1494L24.0087 9.89941L28.6775 8.79941C29.04 8.43691 29.3775 8.05566 29.6838 7.67441C30.765 6.30316 31.4962 4.87566 31.3212 3.57754C31.24 2.92816 30.8525 2.31754 30.2213 1.97566C30.065 1.89441 29.8962 1.82254 29.7525 1.77441Z" fill="#006039"/>
</svg>
